<?xml version="1.0" standalone="no"?><!DOCTYPE svg PUBLIC "-//W3C//DTD SVG 1.1//EN" "http://www.w3.org/Graphics/SVG/1.1/DTD/svg11.dtd"><svg t="1639461357840" class="icon" viewBox="0 0 1024 1024" version="1.1" xmlns="http://www.w3.org/2000/svg" p-id="100241" width="200" height="200" xmlns:xlink="http://www.w3.org/1999/xlink"><defs><style type="text/css"></style></defs><path d="M674.01728 258.310144c0 8.022016 9.259008 14.505984 20.754432 14.505984 11.460608 0 20.752384-6.483968 20.752384-14.505984V184.707072c0-8.022016-9.291776-14.47936-20.752384-14.47936h-105.426944c-11.491328 0-20.752384 6.459392-20.752384 14.47936 0 8.024064 9.291776 14.481408 20.752384 14.481408h57.042944l-181.829632 127.080448-56.25856-39.274496a26.114048 26.114048 0 0 0-14.686208-4.220928h-0.032768a25.714688 25.714688 0 0 0-14.626816 4.251648l-192.899072 135.346176c-8.087552 5.670912-8.087552 14.8992 0.086016 20.508672 4.040704 2.809856 9.353216 4.225024 14.659584 4.225024a25.878528 25.878528 0 0 0 14.718976-4.284416l178.151424-125.028352 56.195072 39.241728c7.7824 5.459968 21.567488 5.459968 29.382656 0l194.768896-136.042496v37.318656z m-44.55424 65.51552h86.996992V602.7264h-86.996992V323.825664z m-145.481728 57.31328h87.056384V602.7264h-87.056384V381.138944z m-145.481728 55.986176h87.054336v165.60128h-87.054336v-165.60128z m-145.481728 61.321216h87.02976V602.7264H193.017856v-104.280064z m0 0" fill="#A7AEB5" p-id="100242"></path><path d="M903.688192 991.690752H119.691264C86.40512 991.676416 59.424768 964.7104 59.392 931.422208V92.737536c0.032768-33.282048 27.01312-60.248064 60.299264-60.266496h783.935488c33.282048 0.018432 60.268544 26.984448 60.299264 60.266496v838.62528c0.002048 33.333248-26.966016 60.327936-60.237824 60.327936z m0-895.516672H119.691264v835.610624h783.935488V152.375296h0.059392V96.17408z m0 0" fill="#A7AEB5" p-id="100243"></path><path d="M602.138624 751.886336H180.0192v-59.963392h422.117376v59.963392z m180.922368 119.963648H180.0192v-59.99616h603.039744v59.99616z m0 0" fill="#A7AEB5" p-id="100244"></path></svg>