<?xml version="1.0" standalone="no"?><!DOCTYPE svg PUBLIC "-//W3C//DTD SVG 1.1//EN" "http://www.w3.org/Graphics/SVG/1.1/DTD/svg11.dtd"><svg t="1639461323241" class="icon" viewBox="0 0 1024 1024" version="1.1" xmlns="http://www.w3.org/2000/svg" p-id="99307" width="200" height="200" xmlns:xlink="http://www.w3.org/1999/xlink"><defs><style type="text/css"></style></defs><path d="M151.187435 870.668063c-43.962304 0-75.593717-31.631414-75.593718-75.593717v-643.350786c0-63.262827 18.764398-75.593717 75.593718-75.593717h523.258638c56.829319 0 75.593717 18.764398 75.593718 75.593717v82.027225c0 18.764398 12.867016 31.631414 31.631413 31.631414 18.764398 0 31.631414-12.867016 31.631414-31.631414v-107.225131C813.302618 25.734031 781.671204 0.536126 680.879581 0.536126H125.989529C56.829319 0 0 6.433508 0 125.989529v706.613612c0 12.867016 0 25.197906 6.433508 38.064922 12.867016 43.962304 50.395812 69.160209 94.358115 69.160209h189.252356c18.764398 0 31.631414-12.867016 31.631414-31.631413 0-18.764398-12.867016-31.631414-31.631414-31.631414l-138.856544-5.897382z m44.498429-460.531937c-18.764398 0-31.631414 12.867016-31.631414 31.631413 0 12.867016 6.433508 31.631414 31.631414 31.631414h100.791623c18.764398 0 31.631414-12.867016 31.631414-31.631414s-12.867016-31.631414-31.631414-31.631413H195.685864z m5.897382-138.856545h390.835602c18.764398 0 31.631414-12.867016 31.631414-31.631413s-12.867016-31.631414-31.631414-31.631414H201.583246c-18.764398 0-31.631414 12.867016-31.631414 31.631414s12.867016 31.631414 31.631414 31.631413z m820.272251 403.702618c0-182.818848-157.620942-334.542408-346.873298-340.439791v-6.433507 6.433507c-182.818848 0-340.439791 157.620942-340.439791 340.439791 0 189.252356 157.620942 346.873298 340.439791 346.873298s346.873298-164.05445 346.873298-346.873298z m-346.873298-277.713089c75.593717 0 145.290052 31.631414 201.583246 82.027225 56.829319 56.829319 82.027225 120.092147 82.027225 201.583246 0 151.187435-125.989529 277.713089-277.713089 277.713089S403.166492 832.603141 403.166492 680.879581c-5.897382-157.620942 120.092147-283.610471 271.815707-283.610471z" p-id="99308" fill="#A7AEB5"></path><path d="M626.318073 778.936963l220.631791-220.637151c12.132524-12.132524 32.221152-12.513173 44.734324 0 12.132524 12.127162 12.513173 32.221152 0 44.734324l-220.63179 220.631791c-12.132524 12.132524-32.221152 12.513173-44.734325 0-12.513173-12.507812-12.513173-32.221152 0-44.734325z" p-id="99309" fill="#A7AEB5"></path><path d="M623.283602 827.456335l-145.19355-145.19355c-12.132524-12.132524-12.513173-32.221152 0-44.734324 12.132524-12.132524 32.221152-12.507812 44.734325 0l144.8129 144.818262c12.132524 12.127162 12.513173 32.221152 0 44.734324-11.751874 12.507812-32.221152 12.507812-44.353675 0.375288z" p-id="99310" fill="#A7AEB5"></path></svg>