<?xml version="1.0" standalone="no"?><!DOCTYPE svg PUBLIC "-//W3C//DTD SVG 1.1//EN" "http://www.w3.org/Graphics/SVG/1.1/DTD/svg11.dtd"><svg t="1639460186089" class="icon" viewBox="0 0 1024 1024" version="1.1" xmlns="http://www.w3.org/2000/svg" p-id="57535" width="200" height="200" xmlns:xlink="http://www.w3.org/1999/xlink"><defs><style type="text/css"></style></defs><path d="M719.053853 267.310198a38.656655 38.656655 0 0 1-39.793615 39.793615H190.367253a39.793615 39.793615 0 0 1 0-79.58723h488.892985a42.636016 42.636016 0 0 1 39.793615 39.793615z m-113.696043 181.913669a38.656655 38.656655 0 0 1-39.793615 39.793615H190.367253a38.656655 38.656655 0 0 1-39.793615-39.793615 38.656655 38.656655 0 0 1 39.793615-39.793615h375.196942a42.636016 42.636016 0 0 1 39.793615 39.793615z m-113.696043 181.913669a38.656655 38.656655 0 0 1-39.793615 39.793615H190.367253a39.793615 39.793615 0 1 1 0-79.58723h261.500899a42.636016 42.636016 0 0 1 39.793615 39.793615z m523.001798 375.196941a42.636016 42.636016 0 0 1-56.848022 11.369605l-125.065647-79.58723a42.636016 42.636016 0 0 1-11.369604-56.848022c11.369604-22.739209 34.108813-22.739209 56.848021-11.369604l125.065647 85.272032a36.951214 36.951214 0 0 1 11.369605 51.163219z" p-id="57536" fill="#A7AEB5"></path><path d="M696.314644 1017.704082a284.240107 284.240107 0 0 1-68.217626-11.369605 202.947437 202.947437 0 0 1-119.380845-108.01124 221.138804 221.138804 0 0 1-11.369604-159.174461 202.947437 202.947437 0 0 1 108.011241-119.380845 207.495278 207.495278 0 0 1 278.555305 96.641637 221.138804 221.138804 0 0 1 11.369604 159.17446 202.947437 202.947437 0 0 1-108.01124 119.380845 238.19321 238.19321 0 0 1-90.956835 22.739209z m0-341.088129a201.810476 201.810476 0 0 0-56.848021 11.369604 124.497167 124.497167 0 0 0-68.217626 73.902428 128.476529 128.476529 0 0 0 5.684802 102.326439 124.497167 124.497167 0 0 0 73.902428 68.217625 128.476529 128.476529 0 0 0 102.326439-5.684802 124.497167 124.497167 0 0 0 68.217626-73.902428 128.476529 128.476529 0 0 0-5.684803-102.326438 123.360207 123.360207 0 0 0-119.380845-73.902428z" p-id="57537" fill="#A7AEB5"></path><path d="M463.237756 1023.388884H53.932002c-28.424011 0-51.163219-34.108813-51.16322-62.532824V62.657321A64.238264 64.238264 0 0 1 70.986408 0.124497h744.709081a68.217626 68.217626 0 0 1 68.217626 62.532824v477.52338a39.793615 39.793615 0 0 1-79.58723 0V79.711727H76.67121v869.774729h386.566546a38.656655 38.656655 0 0 1 39.793615 39.793615 41.499056 41.499056 0 0 1-39.793615 34.108813z" p-id="57538" fill="#A7AEB5"></path></svg>