<?xml version="1.0" standalone="no"?><!DOCTYPE svg PUBLIC "-//W3C//DTD SVG 1.1//EN" "http://www.w3.org/Graphics/SVG/1.1/DTD/svg11.dtd"><svg t="1639459944328" class="icon" viewBox="0 0 1024 1024" version="1.1" xmlns="http://www.w3.org/2000/svg" p-id="50338" width="200" height="200" xmlns:xlink="http://www.w3.org/1999/xlink"><defs><style type="text/css"></style></defs><path d="M898.66 98.05H125.53c-33.31 0-58.43 25.52-58.43 59.34v709.47c0 33.84 25.12 59.35 58.43 59.35h773.13c33.31 0 58.43-25.52 58.43-59.35V157.39c0.01-33.83-25.11-59.34-58.43-59.34z m-12.95 71.39v472.41H138.49V169.44h747.22zM138.49 854.82V713.24h747.22v141.58H138.49z" fill="#A7AEB5" p-id="50339"></path><path d="M191.56 453.77h108.43c16.96 0 32.73-9.93 40.17-25.31l52.1-107.82 126.41 238.33c7.84 14.75 22.84 23.77 39.37 23.77 0.42 0 0.84-0.01 1.25-0.02 17.02-0.46 32.07-10.42 39.25-25.96l70.02-151.14 17 30.06c7.92 14.02 22.8 22.74 38.82 22.74H841.3c19.72 0 35.7-15.98 35.7-35.7s-15.98-35.7-35.7-35.7H740.07l-35.04-61.94c-8.28-14.68-23.58-23.24-40.58-22.74-16.77 0.66-31.61 10.59-38.74 25.95l-69.26 149.52-125.9-237.35c-7.96-15-23.32-24.18-40.25-23.79-16.87 0.33-31.93 10.02-39.31 25.3l-67.85 140.4h-91.59c-19.72 0-35.7 15.98-35.7 35.7 0.01 19.72 15.99 35.7 35.71 35.7zM765.29 750.41H664.31c-19.71 0-35.7 15.98-35.7 35.7 0 19.71 15.98 35.7 35.7 35.7h100.98c19.71 0 35.7-15.98 35.7-35.7 0-19.72-15.98-35.7-35.7-35.7zM508.51 750.41H205.69c-19.71 0-35.7 15.98-35.7 35.7 0 19.71 15.98 35.7 35.7 35.7h302.82c19.71 0 35.7-15.98 35.7-35.7-0.01-19.72-15.99-35.7-35.7-35.7z" fill="#A7AEB5" p-id="50340"></path></svg>