<?xml version="1.0" standalone="no"?><!DOCTYPE svg PUBLIC "-//W3C//DTD SVG 1.1//EN" "http://www.w3.org/Graphics/SVG/1.1/DTD/svg11.dtd"><svg t="1639461278917" class="icon" viewBox="0 0 1024 1024" version="1.1" xmlns="http://www.w3.org/2000/svg" p-id="98355" width="200" height="200" xmlns:xlink="http://www.w3.org/1999/xlink"><defs><style type="text/css"></style></defs><path d="M806.4 0c46.4 0 84.608 35.712 89.152 81.472l0.448 9.216V360.32a43.648 43.648 0 0 1-40.128 43.648 43.52 43.52 0 0 1-46.08-37.184l-0.512-6.464V90.688a2.944 2.944 0 0 0-1.408-2.56l-1.408-0.384H89.536a2.88 2.88 0 0 0-2.496 1.472l-0.32 1.472v842.624c0 1.024 0.576 1.984 1.408 2.56l1.408 0.384h416.256a43.52 43.52 0 0 1 43.2 40.576 43.776 43.776 0 0 1-36.736 46.72L505.792 1024H89.536c-45.952 0-84.48-35.2-89.088-81.472L0 933.312V90.688C0 43.712 35.2 5.12 80.448 0.448L89.6 0h716.928z m12.16 540.928l121.792 82.56-236.864 341.312L572.864 1024l8.512-141.632 237.12-341.44zM439.04 723.392a44.16 44.16 0 0 1 44.672 40.576 43.968 43.968 0 0 1-38.08 46.656l-6.592 0.448h-266.24a44.16 44.16 0 0 1-44.224-40.576 43.968 43.968 0 0 1 37.632-46.592l6.592-0.512h266.24z m462.912-302.976L1024 503.04l-55.68 80.384-122.048-82.624 55.744-80.32zM527.872 489.728a44.16 44.16 0 0 1 44.16 40.576 43.968 43.968 0 0 1-37.632 46.528l-6.528 0.512H172.864a44.16 44.16 0 0 1-44.224-40.576 43.968 43.968 0 0 1 37.632-46.592l6.592-0.448h355.008zM646.208 256a44.16 44.16 0 0 1 44.16 40.576 43.968 43.968 0 0 1-37.568 46.592l-6.592 0.448H172.8a44.16 44.16 0 0 1-44.736-40.512 43.968 43.968 0 0 1 38.144-46.72L172.8 256h473.344z" p-id="98356" fill="#A7AEB5"></path></svg>