<?xml version="1.0" standalone="no"?><!DOCTYPE svg PUBLIC "-//W3C//DTD SVG 1.1//EN" "http://www.w3.org/Graphics/SVG/1.1/DTD/svg11.dtd"><svg t="1639461190556" class="icon" viewBox="0 0 1024 1024" version="1.1" xmlns="http://www.w3.org/2000/svg" p-id="95612" width="200" height="200" xmlns:xlink="http://www.w3.org/1999/xlink"><defs><style type="text/css"></style></defs><path d="M788.821333 989.866667H237.738667a163.328 163.328 0 0 1-163.157334-163.157334V197.290667A163.328 163.328 0 0 1 237.738667 34.133333h551.082666a163.328 163.328 0 0 1 163.328 163.157334v629.418666A163.328 163.328 0 0 1 788.821333 989.866667zM237.738667 102.4a95.061333 95.061333 0 0 0-94.890667 94.890667v629.418666A95.061333 95.061333 0 0 0 237.738667 921.6h551.082666a95.232 95.232 0 0 0 95.061334-94.890667V197.290667A95.232 95.232 0 0 0 788.821333 102.4z" p-id="95613" fill="#A7AEB5"></path><path d="M320 405.504a34.133333 34.133333 0 0 1-24.064-9.898667l-62.464-62.464a34.133333 34.133333 0 0 1 48.298667-48.298666l62.293333 62.464a34.133333 34.133333 0 0 1-24.064 58.197333z" p-id="95614" fill="#A7AEB5"></path><path d="M320 405.504a34.133333 34.133333 0 0 1-24.064-58.197333l111.786667-111.786667a34.133333 34.133333 0 0 1 48.128 48.128l-111.786667 111.957333a34.133333 34.133333 0 0 1-24.064 9.898667zM339.626667 798.549333h-5.802667a114.346667 114.346667 0 0 1-114.176-114.346666 119.466667 119.466667 0 0 1 119.466667-119.466667 114.346667 114.346667 0 0 1 114.346666 114.176v5.802667a114.517333 114.517333 0 0 1-113.834666 113.834666z m0-166.058666a51.2 51.2 0 0 0-51.2 51.2 46.08 46.08 0 0 0 45.909333 46.08h5.802667a46.08 46.08 0 0 0 46.08-46.08v-5.802667a46.08 46.08 0 0 0-46.592-45.397333zM543.402667 295.082667l206.336 3.242666a34.133333 34.133333 0 0 1 0 68.266667l-204.8-3.242667a34.133333 34.133333 0 0 1-34.133334-34.133333 32.768 32.768 0 0 1 32.597334-34.133333zM543.402667 648.533333l206.336 3.242667a34.133333 34.133333 0 0 1 0 68.266667l-204.8-3.242667a34.133333 34.133333 0 0 1-34.133334-34.133333 32.768 32.768 0 0 1 32.597334-34.133334z" p-id="95615" fill="#A7AEB5"></path></svg>