<?xml version="1.0" standalone="no"?><!DOCTYPE svg PUBLIC "-//W3C//DTD SVG 1.1//EN" "http://www.w3.org/Graphics/SVG/1.1/DTD/svg11.dtd"><svg t="1639460494361" class="icon" viewBox="0 0 1024 1024" version="1.1" xmlns="http://www.w3.org/2000/svg" p-id="69819" width="200" height="200" xmlns:xlink="http://www.w3.org/1999/xlink"><defs><style type="text/css"></style></defs><path d="M832 85.333333H725.333333V42.666667c0-25.6-17.066667-42.666667-42.666666-42.666667s-42.666667 17.066667-42.666667 42.666667v42.666666H384V42.666667c0-25.6-17.066667-42.666667-42.666667-42.666667S298.666667 17.066667 298.666667 42.666667v42.666666H192C132.266667 85.333333 85.333333 132.266667 85.333333 192v725.333333C85.333333 977.066667 132.266667 1024 192 1024h640c59.733333 0 106.666667-46.933333 106.666667-106.666667v-725.333333C938.666667 132.266667 891.733333 85.333333 832 85.333333z m21.333333 832c0 12.8-8.533333 21.333333-21.333333 21.333334h-640c-12.8 0-21.333333-8.533333-21.333333-21.333334v-725.333333c0-12.8 8.533333-21.333333 21.333333-21.333333H298.666667v42.666666c0 25.6 17.066667 42.666667 42.666666 42.666667s42.666667-17.066667 42.666667-42.666667V170.666667h256v42.666666c0 25.6 17.066667 42.666667 42.666667 42.666667s42.666667-17.066667 42.666666-42.666667V170.666667h106.666667c12.8 0 21.333333 8.533333 21.333333 21.333333v725.333333z" p-id="69820" fill="#A7AEB5"></path><path d="M704 362.666667h-384c-25.6 0-42.666667 17.066667-42.666667 42.666666s17.066667 42.666667 42.666667 42.666667h384c25.6 0 42.666667-17.066667 42.666667-42.666667s-17.066667-42.666667-42.666667-42.666666zM704 554.666667h-384c-25.6 0-42.666667 17.066667-42.666667 42.666666s17.066667 42.666667 42.666667 42.666667h384c25.6 0 42.666667-17.066667 42.666667-42.666667s-17.066667-42.666667-42.666667-42.666666zM576 746.666667h-256c-25.6 0-42.666667 17.066667-42.666667 42.666666s17.066667 42.666667 42.666667 42.666667h256c25.6 0 42.666667-17.066667 42.666667-42.666667s-17.066667-42.666667-42.666667-42.666666z" p-id="69821" fill="#A7AEB5"></path></svg>