<?xml version="1.0" standalone="no"?><!DOCTYPE svg PUBLIC "-//W3C//DTD SVG 1.1//EN" "http://www.w3.org/Graphics/SVG/1.1/DTD/svg11.dtd"><svg t="1639460053906" class="icon" viewBox="0 0 1024 1024" version="1.1" xmlns="http://www.w3.org/2000/svg" p-id="53943" width="200" height="200" xmlns:xlink="http://www.w3.org/1999/xlink"><defs><style type="text/css"></style></defs><path d="M512 1024c-282.772048 0-512-229.227952-512-512S229.227952 0 512 0s512 229.227952 512 512-229.227952 512-512 512z m0-37.012048c262.32906 0 474.987952-212.658892 474.987952-474.987952S774.32906 37.012048 512 37.012048 37.012048 249.67094 37.012048 512s212.658892 474.987952 474.987952 474.987952z" p-id="53944" fill="#A7AEB5"></path><path d="M512 931.46988c-231.664578 0-419.46988-187.805301-419.46988-419.46988s187.805301-419.46988 419.46988-419.46988 419.46988 187.805301 419.46988 419.46988-187.805301 419.46988-419.46988 419.46988z m0-37.012049c211.227759 0 382.457831-171.230072 382.457831-382.457831 0-211.227759-171.230072-382.457831-382.457831-382.457831-211.227759 0-382.457831 171.230072-382.457831 382.457831 0 211.227759 171.230072 382.457831 382.457831 382.457831z" p-id="53945" fill="#A7AEB5"></path><path d="M234.539181 494.678361c-1.455807 14.823325 9.54294 28.06747 24.662361 29.529446 15.150265 1.461976 28.560964-9.468916 30.02294-24.316915 11.017253-112.041639 59.169928-179.644145 147.82612-206.391519 14.496386-4.379759 22.614361-19.462169 18.240771-33.693301-4.398265-14.305157-19.770602-22.423133-34.341012-18.031036-110.049157 33.212145-173.216386 118.759325-186.41118 252.903325z m256.129542-245.747662c10.42506 33.903036-8.84588 69.718361-42.927807 80.001542-73.240675 22.102361-112.047807 76.577928-121.683277 174.585831-3.466795 35.23547-35.019566 60.946506-70.415422 57.529061-35.414361-3.423614-61.402988-34.729639-57.936193-69.989784 14.588916-148.375133 87.373108-246.938217 212.554024-284.71518 34.007904-10.258506 70.014458 8.759518 80.408675 42.58853zM792.890602 552.158072c10.998747-10.036434 11.689639-27.234699 1.424964-38.437012-10.277012-11.226988-27.55547-12.078265-38.572723-2.023325-83.159904 75.893205-164.179277 93.905735-247.968385 54.469398-13.694458-6.452434-29.825542-0.678554-36.099085 12.830843-6.304386 13.571084-0.308434 29.887229 13.45388 36.370506 104.003855 48.960771 208.192771 27.654169 307.755181-63.21041zM438.099277 563.403566c14.94053-32.16347 53.229494-45.888771 85.436145-30.726168 69.218699 32.58294 134.507952 18.068048 207.248964-48.319229 26.155181-23.866602 66.806747-21.861783 90.821397 4.361253 24.033157 26.241542 22.392289 66.893108-3.775229 90.778217-110.123181 100.500048-230.16559 125.051373-348.468434 69.360578-32.138795-15.131759-46.17253-53.359036-31.262843-85.454651zM394.277012 782.015229c41.811277 16.020048 86.281253 20.399807 116.168482 12.750651 16.445687-4.207036 26.327904-18.086554 23.656867-32.619952-2.65253-14.447036-16.828145-23.860434-33.773494-22.003663-66.479807 7.297542-126.544193-21.127711-168.984674-77.68212-10.153639-13.534072-26.759711-17.278458-39.294458-9.17282-12.553253 8.111807-15.970699 24.921446-7.766362 39.232771 23.151036 40.404819 62.426988 71.266699 109.993639 89.495133z m-122.324819-159.811856c29.51094-19.073542 67.590169-10.486747 88.99547 18.037205 34.853012 46.45012 82.357976 68.928771 135.340723 63.111711 35.432867-3.886265 67.886265 17.673253 74.215325 52.106795 6.341398 34.48906-16.316145 66.32559-50.891566 75.165302-85.978988 21.991325-214.460145-27.234699-267.442892-119.703133-17.691759-30.874217-9.82053-69.582651 19.78294-88.71788zM731.993446 347.345735c-79.63759-37.999036-188.934169-15.668434-231.948338 34.359518-10.14747 11.794506-10.073446 27.648 0.04935 37.585735 10.536096 10.33253 27.129831 10.375711 36.999711 0.37012 46.770892-47.369253 112.134169-56.949205 178.73118-30.707662 13.885687 5.471614 28.76453-0.616867 33.915374-13.540241 4.274892-10.727325-1.215229-20.177735-17.747277-28.06747z m15.946024-33.403374c32.342361 15.440193 48.73253 43.668048 36.179277 75.17147-12.812337 32.16347-49.300048 47.104-81.864482 34.273157-53.562602-21.096867-103.164916-13.830169-138.819855 22.281253-24.329253 24.643855-64.289928 24.532819-89.260723 0.043181-24.501976-24.039325-24.66853-62.001349-2.18988-88.138024 53.969735-62.766265 181.322024-88.791904 275.955663-43.631037z" p-id="53946" fill="#A7AEB5"></path></svg>