<?xml version="1.0" standalone="no"?><!DOCTYPE svg PUBLIC "-//W3C//DTD SVG 1.1//EN" "http://www.w3.org/Graphics/SVG/1.1/DTD/svg11.dtd"><svg t="1639460095380" class="icon" viewBox="0 0 1024 1024" version="1.1" xmlns="http://www.w3.org/2000/svg" p-id="55103" width="200" height="200" xmlns:xlink="http://www.w3.org/1999/xlink"><defs><style type="text/css"></style></defs><path d="M320.587852 605.658074C356.655407 700.169481 449.611852 764.207407 555.008 764.207407c138.088296 0 249.969778-108.923259 249.969778-243.2 0-134.257778-111.881481-243.2-249.969778-243.2-17.92 0-32.426667 14.032593-32.426667 31.383704 0 16.801185 13.653333 30.53037 30.795852 31.345778l1.630815 0.037926c102.191407 0 185.116444 80.744296 185.116444 180.432592 0 99.688296-82.925037 180.432593-185.116444 180.432593-77.975704 0-146.830222-47.42637-173.568-117.532444-6.219852-16.251259-24.860444-24.576-41.66163-18.583704-16.801185 6.030222-25.391407 24.082963-19.190518 40.334222z" fill="#A7AEB5" p-id="55104"></path><path d="M395.464092 444.767796m13.811245 7.973926l34.782659 20.081778q13.811245 7.973926 5.837319 21.78517l-20.081777 34.78266q-7.973926 13.811245-21.785171 5.837319l-34.78266-20.081778q-13.811245-7.973926-5.837319-21.785171l20.081778-34.782659q7.973926-13.811245 21.785171-5.837319Z" fill="#A7AEB5" p-id="55105"></path><path d="M660.859259 791.646815a108.088889 108.088889 0 0 0-216.177778 0h216.177778z" fill="#A7AEB5" p-id="55106"></path><path d="M318.577778 791.646815m31.914666 0l404.555852 0q31.914667 0 31.914667 31.914666l0 8.229926q0 31.914667-31.914667 31.914667l-404.555852 0q-31.914667 0-31.914666-31.914667l0-8.229926q0-31.914667 31.914666-31.914666Z" fill="#A7AEB5" p-id="55107"></path><path d="M314.462815 530.014815h62.27437c17.635556 0 31.914667 14.279111 31.914667 31.914666V584.059259H282.548148v-22.129778c0-17.635556 14.279111-31.914667 31.914667-31.914666z" fill="#A7AEB5" p-id="55108"></path><path d="M246.518519 566.044444m31.914666 0l152.348445 0q31.914667 0 31.914666 31.914667l0 8.229926q0 31.914667-31.914666 31.914667l-152.348445 0q-31.914667 0-31.914666-31.914667l0-8.229926q0-31.914667 31.914666-31.914667Z" fill="#A7AEB5" p-id="55109"></path><path d="M538.699198 161.121104m20.725079 11.96563l67.758854 39.120592q20.725078 11.96563 8.759449 32.690709l-147.209482 254.974301q-11.96563 20.725078-32.690708 8.759449l-67.758854-39.120593q-20.725078-11.96563-8.759449-32.690708l147.209482-254.974301q11.96563-20.725078 32.690708-8.759449Z" fill="#A7AEB5" p-id="55110"></path></svg>