<svg width="31" height="24" viewBox="0 0 31 24" fill="none" xmlns="http://www.w3.org/2000/svg">
<path id="Vector" d="M15.5601 15C13.9744 15 12.3886 15.6 11.3975 16.6C11.0011 17 10.4064 17 10.01 16.6C9.41536 16.2 9.61358 15.4 10.01 14.8C11.0011 14 12.3886 13.4 13.7762 13L15.5601 15ZM8.8207 8.4C7.43318 9 6.24387 9.8 5.25278 10.8C4.85634 11.2 4.85634 12 5.25278 12.4C5.64922 12.8 6.44209 12.8 6.64031 12.4C7.82962 11.4 9.01892 10.6 10.4065 10L8.8207 8.4ZM3.86525 3.4C2.67594 4.2 1.28842 5.2 0.297327 6.4C-0.099109 6.8 -0.099109 7.6 0.297327 8C0.693763 8.4 1.28842 8.4 1.68485 8C2.87416 6.8 4.06347 5.8 5.451 5L3.86525 3.4ZM30.6247 6.4C26.6603 2.4 21.3084 0 15.5601 0C13.1815 0 11.0011 0.4 9.01892 1L10.8029 2.8C12.1904 2.4 13.7762 2.2 15.5601 2.2C20.912 2.2 25.6692 4.4 29.2372 7.8C29.6336 8.4 30.2283 8.4 30.6247 7.8C31.0211 7.6 31.2193 6.8 30.6247 6.4ZM15.5601 6.8H14.7672L17.1459 9.2C19.7227 9.4 22.2995 10.6 24.0835 12.4C24.4799 12.8 25.0746 12.8 25.471 12.4C26.0657 12 26.0657 11.2 25.471 10.8C22.8942 8.4 19.3263 6.8 15.5601 6.8ZM15.5601 19.6C14.3708 19.6 13.3797 20.6 13.3797 21.8C13.3797 23 14.3708 24 15.5601 24C16.7494 24 17.7405 23 17.7405 21.8C17.7405 20.4 16.7494 19.6 15.5601 19.6ZM21.5067 15.8L19.5245 13.8L14.7672 9L12.7851 7L9.21714 3.4L7.43318 1.6L6.24387 0.4C5.64922 8.9407e-08 5.05456 8.9407e-08 4.65813 0.4C4.26169 0.8 4.26169 1.6 4.65813 2L5.25278 2.6L6.83852 4.2L11.1993 8.6L11.9922 9.4L20.912 18.4C21.3084 18.8 22.1013 18.8 22.4978 18.4C22.8942 18 22.8942 17.2 22.4978 16.8L21.5067 15.8Z" fill="#FF0000"/>
</svg>
