<svg width="32" height="24" viewBox="0 0 32 24" fill="none" xmlns="http://www.w3.org/2000/svg">
<path id="Vector" d="M26.4957 10.6781C20.441 5.59657 11.4966 5.59657 5.30425 10.6781C4.75382 11.0901 4.61622 12.0515 5.02904 12.6009C5.44186 13.1502 6.40511 13.2876 6.95554 12.8755L7.09314 12.7382C12.1846 8.48069 19.6154 8.48069 24.7068 12.7382C24.982 13.0129 25.2573 13.0129 25.5325 13.0129C25.9453 13.0129 26.3581 12.8755 26.6333 12.4635C27.1838 12.0515 27.1838 11.2275 26.4957 10.6781ZM31.4496 5.87124C22.6427 -1.95708 9.29485 -1.95708 0.488009 5.87124C-0.0624188 6.4206 -0.200026 7.24464 0.350402 7.79399C0.90083 8.34335 1.72647 8.48069 2.2769 7.93133C10.1205 1.06438 21.8171 1.06438 29.6607 7.93133C29.9359 8.20601 30.2111 8.34335 30.6239 8.20601C31.4496 8.20601 32 7.65665 32 6.83262C31.8624 6.4206 31.7248 6.14592 31.4496 5.87124ZM21.5419 15.485C18.2393 13.1502 13.6983 13.0129 10.3957 15.485C9.84528 15.897 9.70767 16.8584 10.1205 17.4077C10.5333 17.9571 11.359 18.0944 11.9094 17.6824C13.0102 16.8584 14.5239 16.4464 15.9 16.4464C17.2761 16.4464 18.7897 16.8584 19.8906 17.6824C20.1658 17.8197 20.441 17.9571 20.7162 17.9571C21.5419 17.9571 22.0923 17.2704 22.0923 16.5837C22.0923 16.1717 21.8171 15.7597 21.5419 15.485ZM15.9 19.8798C14.7991 19.8798 13.8359 20.8412 13.8359 21.9399C13.8359 23.0386 14.7991 24 15.9 24C17.0008 24 17.9641 23.0386 17.9641 21.9399C17.9641 21.3906 17.6889 20.8412 17.4137 20.4292C17.0008 20.1545 16.4504 19.8798 15.9 19.8798Z" fill="#409EFF"/>
</svg>
