<?xml version="1.0" standalone="no"?><!DOCTYPE svg PUBLIC "-//W3C//DTD SVG 1.1//EN" "http://www.w3.org/Graphics/SVG/1.1/DTD/svg11.dtd"><svg t="1639454138917" class="icon" viewBox="0 0 1024 1024" version="1.1" xmlns="http://www.w3.org/2000/svg" p-id="47922" width="200" height="200" xmlns:xlink="http://www.w3.org/1999/xlink"><defs><style type="text/css"></style></defs><path d="M269.7 922.6c-50.1 0-91-41-91-91V285.5c0-50.1 41-81 91-81 15.9 0 29.6 3.7 29.6 19.6v23.2c-78.9 0-79.2 25.7-79.2 76.9v461.9c0 92.6 37.3 95.1 95.1 95.1h398.2c41 0 95.1-1.5 95.1-95.1V324.2c0-51.2-0.8-74.6-81.4-74.6v-23.2c-2.3-18.2 11.4-21.9 27.3-21.9 50.1 0 91 31 91 81v546.1c0 50.1-41 91-91 91H269.7z" p-id="47923" fill="#A7AEB5"></path><path d="M542.7 679.2h182c15.9 0 29.6 13.7 29.6 29.6s-13.7 31.9-29.6 31.9h-182c-15.9 0-29.6-13.7-29.6-29.6 0-16 13.7-31.9 29.6-31.9z m0-241.3h182c15.9 0 29.6 13.7 29.6 29.6 0 15.9-13.7 29.6-29.6 29.6h-182c-15.9 0-29.6-13.7-29.6-29.6 0-15.9 13.7-29.6 29.6-29.6z m-182-202V224c0-15.9 13.7-29.6 29.6-29.6h29.6c0-50.1 41-91 91-91 50.1 0 91 41 91 91h31.9c15.9 0 29.6 13.7 29.6 29.6v11.6l-302.7 0.3zM281 442.5c4.6-4.6 13.7-4.6 20.5 0l50.1 50.1 109.2-109.2c6.8-6.8 18.2-6.8 22.8 0 6.8 6.8 6.8 15.9 0 22.8L365.2 524.4c-4.6 2.3-9.1 4.5-13.7 4.5-4.5 0-6.8-2.3-9.1-4.5l-59.2-59.2c-9-9-9-18.2-2.2-22.7z m166.1 323.1c-6.8 6.8-18.2 6.8-22.8 0l-47.8-47.8-47.8 47.8c-6.8 6.8-18.2 6.8-22.8 0-6.8-6.8-6.8-18.2 0-22.8l47.8-47.8-47.8-47.8c-6.8-6.8-6.8-18.2 0-22.8 6.8-6.8 15.9-6.8 22.8 0l47.8 47.8 47.8-47.8c6.8-6.8 18.2-6.8 22.8 0 6.8 6.8 6.8 15.9 0 22.8L399.3 695l47.8 47.8c6.9 4.6 6.9 16 0 22.8z" p-id="47924" fill="#A7AEB5"></path></svg>