<?xml version="1.0" standalone="no"?><!DOCTYPE svg PUBLIC "-//W3C//DTD SVG 1.1//EN" "http://www.w3.org/Graphics/SVG/1.1/DTD/svg11.dtd"><svg t="1639461155076" class="icon" viewBox="0 0 1024 1024" version="1.1" xmlns="http://www.w3.org/2000/svg" p-id="95198" width="200" height="200" xmlns:xlink="http://www.w3.org/1999/xlink"><defs><style type="text/css"></style></defs><path d="M1017.6 761.6s-32-44.8-76.8-89.6c-64-57.6-134.4-89.6-204.8-89.6s-140.8 32-204.8 89.6c-44.8 44.8-76.8 89.6-76.8 89.6L448 768l6.4 6.4s25.6 44.8 76.8 89.6c64 64 134.4 96 204.8 96s140.8-32 204.8-96c51.2-44.8 76.8-89.6 76.8-89.6l6.4-6.4-6.4-6.4z m-115.2 64c-38.4 32-96 64-166.4 64s-128-38.4-166.4-64c-32-25.6-51.2-51.2-57.6-64 6.4-12.8 32-38.4 57.6-57.6 38.4-32 96-64 160-64 70.4 0 128 38.4 166.4 64 32 25.6 51.2 51.2 57.6 57.6 0 19.2-25.6 44.8-51.2 64z" fill="#A7AEB5" p-id="95199"></path><path d="M736 691.2c-38.4 0-76.8 32-76.8 76.8 0 38.4 32 76.8 76.8 76.8 38.4 0 76.8-32 76.8-76.8s-32-76.8-76.8-76.8zM499.2 569.6c-6.4 6.4-12.8 6.4-19.2 6.4-6.4 0-12.8 0-19.2-6.4L313.6 473.6l-70.4 44.8c-6.4 0-12.8 6.4-19.2 6.4-19.2 0-32-19.2-32-32s6.4-19.2 12.8-25.6l89.6-51.2c6.4 0 12.8-6.4 19.2-6.4 6.4 0 12.8 0 19.2 6.4L480 512l172.8-115.2c6.4-12.8 12.8-12.8 19.2-12.8 19.2 0 32 12.8 32 32 0 12.8-6.4 19.2-12.8 25.6l-192 128z" fill="#A7AEB5" p-id="95200"></path><path d="M384 768H64V192h768v320h64V128H0v704h384z" fill="#A7AEB5" p-id="95201"></path></svg>